<svg width="25" height="13" viewBox="0 0 25 13" fill="none" xmlns="http://www.w3.org/2000/svg">
<path d="M24.7136 5.80873C24.7133 5.80843 24.713 5.80809 24.7127 5.8078L19.61 0.729684C19.2277 0.349265 18.6094 0.35068 18.2289 0.733004C17.8484 1.11528 17.8499 1.73359 18.2321 2.11406L21.6581 5.52343H0.976562C0.437207 5.52343 0 5.96063 0 6.49999C0 7.03934 0.437207 7.47655 0.976562 7.47655H21.6581L18.2322 10.8859C17.8499 11.2664 17.8484 11.8847 18.2289 12.267C18.6094 12.6493 19.2278 12.6507 19.61 12.2703L24.7127 7.19217C24.713 7.19188 24.7133 7.19154 24.7136 7.19124C25.0961 6.80951 25.0949 6.1892 24.7136 5.80873Z" fill="#CCCCCC"/>
</svg>
