<svg width="50" height="33" viewBox="0 0 50 33" fill="none" xmlns="http://www.w3.org/2000/svg">
<path d="M46.2554 0H3.74463C1.67647 0 0 1.67647 0 3.74463V29.0142C0 31.0822 1.67647 32.7588 3.74463 32.7588H46.2554C48.3234 32.7588 50 31.0823 50 29.0142V3.74463C50 1.67647 48.3235 0 46.2554 0Z" fill="#38AF00"/>
<path d="M24.5517 4.58325L6.38215 15.6429C5.8303 15.9788 5.8303 16.7797 6.38215 17.1157L24.5517 28.1755C24.827 28.3431 25.1728 28.3431 25.4482 28.1755L43.6177 17.1158C44.1696 16.7799 44.1696 15.979 43.6177 15.643L25.4482 4.58325C25.1729 4.41577 24.827 4.41577 24.5517 4.58325Z" fill="#FFDD43"/>
<path d="M25 23.2758C28.8088 23.2758 31.8965 20.1881 31.8965 16.3793C31.8965 12.5704 28.8088 9.48279 25 9.48279C21.1912 9.48279 18.1035 12.5704 18.1035 16.3793C18.1035 20.1881 21.1912 23.2758 25 23.2758Z" fill="#4057A6"/>
<path d="M19.082 12.8512C18.7566 13.3959 18.5054 13.9879 18.3394 14.6166C22.1625 14.3289 27.8181 15.3984 31.4177 18.8913C31.6526 18.2916 31.8078 17.6527 31.8659 16.9848C28.1491 13.8566 23.0105 12.7442 19.082 12.8512Z" fill="white"/>
<path d="M25.2855 18.7327L25.4691 19.2833L26.0495 19.2878C26.1246 19.2884 26.1557 19.3843 26.0953 19.4289L25.6284 19.7738L25.8035 20.3271C25.8261 20.3988 25.7445 20.458 25.6835 20.4143L25.2113 20.0768L24.7391 20.4143C24.678 20.4579 24.5965 20.3988 24.6191 20.3271L24.7942 19.7738L24.3273 19.4289C24.2669 19.3843 24.298 19.2884 24.3731 19.2878L24.9535 19.2833L25.1371 18.7327C25.1609 18.6614 25.2617 18.6614 25.2855 18.7327Z" fill="white"/>
<path d="M27.5414 20.157L27.6204 20.3939L27.8703 20.3959C27.9026 20.396 27.916 20.4374 27.89 20.4566L27.689 20.6049L27.7643 20.8431C27.774 20.874 27.739 20.8995 27.7125 20.8806L27.5093 20.7354L27.3061 20.8806C27.2798 20.8995 27.2447 20.874 27.2544 20.8431L27.3297 20.6049L27.1287 20.4566C27.1027 20.4375 27.1161 20.3961 27.1485 20.3959L27.3983 20.3939L27.4773 20.157C27.4877 20.1262 27.5312 20.1262 27.5414 20.157Z" fill="white"/>
<path d="M24.3104 17.6868L24.3894 17.9237L24.6392 17.9257C24.6716 17.9259 24.685 17.9672 24.659 17.9864L24.458 18.1347L24.5333 18.3729C24.5429 18.4038 24.508 18.4293 24.4816 18.4104L24.2784 18.2652L24.0752 18.4104C24.0489 18.4293 24.0138 18.4038 24.0234 18.3729L24.0987 18.1347L23.8977 17.9864C23.8718 17.9673 23.8851 17.926 23.9175 17.9257L24.1673 17.9237L24.2463 17.6868C24.2567 17.6563 24.3002 17.6563 24.3104 17.6868Z" fill="white"/>
<path d="M19.9345 17.3995L20.0135 17.6364L20.2633 17.6383C20.2956 17.6385 20.3091 17.6798 20.283 17.6991L20.0821 17.8474L20.1573 18.0856C20.167 18.1164 20.1321 18.1419 20.1056 18.1231L19.9024 17.9779L19.6991 18.1231C19.6729 18.1418 19.6377 18.1164 19.6475 18.0856L19.7228 17.8474L19.5218 17.6991C19.4957 17.6799 19.5092 17.6386 19.5415 17.6383L19.7913 17.6364L19.8703 17.3995C19.8809 17.3689 19.9242 17.3689 19.9345 17.3995Z" fill="white"/>
<path d="M23.5951 20.0752L23.6741 20.3122L23.9239 20.3141C23.9562 20.3143 23.9697 20.3556 23.9436 20.3748L23.7427 20.5232L23.818 20.7614C23.8276 20.7922 23.7927 20.8177 23.7663 20.7989L23.5631 20.6537L23.3599 20.7989C23.3336 20.8177 23.2984 20.7922 23.3081 20.7614L23.3834 20.5232L23.1824 20.3748C23.1564 20.3557 23.1698 20.3144 23.2021 20.3141L23.4519 20.3122L23.5309 20.0752C23.5415 20.0446 23.5849 20.0446 23.5951 20.0752Z" fill="white"/>
<path d="M21.5809 17.2341L21.6456 17.4278L21.8499 17.4295C21.8762 17.4297 21.8873 17.4635 21.8661 17.4792L21.7017 17.6005L21.7633 17.7952C21.7714 17.8204 21.7426 17.8413 21.7211 17.8259L21.5548 17.7071L21.3886 17.8259C21.3671 17.8413 21.3384 17.8204 21.3464 17.7952L21.408 17.6005L21.2436 17.4792C21.2224 17.4635 21.2333 17.4297 21.2598 17.4295L21.4641 17.4278L21.5288 17.2341C21.5371 17.2091 21.5725 17.2091 21.5809 17.2341Z" fill="white"/>
<path d="M27.7167 13.2342L27.7976 13.4766L28.053 13.4786C28.0861 13.4788 28.0998 13.5211 28.0731 13.5408L27.8677 13.6925L27.9447 13.9362C27.9548 13.9677 27.9188 13.9938 27.8919 13.9746L27.684 13.8259L27.4761 13.9746C27.4491 13.9939 27.4133 13.9676 27.4232 13.9362L27.5003 13.6925L27.2948 13.5408C27.2682 13.5212 27.2819 13.479 27.3149 13.4786L27.5704 13.4766L27.6513 13.2342C27.6618 13.2026 27.7063 13.2026 27.7167 13.2342Z" fill="white"/>
<path d="M20.216 16.0488L20.2806 16.2425L20.4849 16.2442C20.5113 16.2444 20.5223 16.2782 20.5011 16.2939L20.3368 16.4152L20.3984 16.6099C20.4064 16.6351 20.3777 16.656 20.3561 16.6406L20.1899 16.5218L20.0237 16.6406C20.0021 16.656 19.9735 16.6351 19.9814 16.6099L20.043 16.4152L19.8787 16.2939C19.8574 16.2782 19.8683 16.2445 19.8949 16.2442L20.0992 16.2425L20.1638 16.0488C20.1721 16.0237 20.2076 16.0237 20.216 16.0488Z" fill="white"/>
<path d="M21.2023 18.7798L21.3001 19.0732L21.6095 19.0756C21.6495 19.0759 21.6661 19.127 21.6339 19.1508L21.385 19.3346L21.4783 19.6295C21.4904 19.6677 21.447 19.6993 21.4144 19.676L21.1626 19.496L20.9109 19.676C20.8783 19.6992 20.8348 19.6677 20.8469 19.6295L20.9402 19.3346L20.6913 19.1508C20.6591 19.127 20.6757 19.0759 20.7157 19.0756L21.0251 19.0732L21.123 18.7798C21.136 18.7417 21.1897 18.7417 21.2023 18.7798Z" fill="white"/>
<path d="M28.7991 20.2185L28.8607 20.4032L29.0553 20.4046C29.0805 20.4048 29.091 20.437 29.0708 20.4519L28.9142 20.5675L28.9729 20.7531C28.9804 20.7771 28.9532 20.7969 28.9326 20.7823L28.7743 20.6691L28.6159 20.7823C28.5954 20.7969 28.568 20.7771 28.5755 20.7531L28.6342 20.5675L28.4777 20.4519C28.4575 20.437 28.4679 20.4048 28.4931 20.4046L28.6878 20.4032L28.7493 20.2185C28.7573 20.1946 28.7912 20.1946 28.7991 20.2185Z" fill="white"/>
<path d="M29.4803 18.8093L29.5593 19.0462L29.8091 19.0482C29.8414 19.0484 29.8549 19.0897 29.8288 19.1089L29.6278 19.2573L29.7031 19.4955C29.7128 19.5263 29.6778 19.5518 29.6515 19.533L29.4482 19.3877L29.245 19.533C29.2187 19.5518 29.1836 19.5263 29.1933 19.4955L29.2686 19.2573L29.0677 19.1089C29.0417 19.0898 29.0551 19.0485 29.0874 19.0482L29.3372 19.0462L29.4162 18.8093C29.4266 18.7786 29.47 18.7786 29.4803 18.8093Z" fill="white"/>
</svg>
