<svg width="16" height="16" viewBox="0 0 16 16" fill="none" xmlns="http://www.w3.org/2000/svg">
<path d="M7.99612 0.333316C3.8604 0.333316 0.509568 3.68415 0.509568 7.81987C0.509568 11.9556 3.8604 15.3064 7.99612 15.3064C12.1318 15.3064 15.4827 11.9556 15.4827 7.81987C15.4827 3.68415 12.1318 0.333316 7.99612 0.333316ZM7.99612 13.8574C4.64528 13.8574 1.95858 11.1707 1.95858 7.81987C1.95858 4.49922 4.64528 1.78233 7.99612 1.78233C11.3168 1.78233 14.0337 4.49922 14.0337 7.81987C14.0337 11.1707 11.3168 13.8574 7.99612 13.8574ZM9.83757 10.7179C10.0187 10.8386 10.23 10.8084 10.3508 10.6273L10.9243 9.87263C11.0451 9.6915 11.0149 9.48019 10.8338 9.35944L8.84137 7.88024V3.59359C8.84137 3.41246 8.66025 3.23134 8.47912 3.23134H7.51312C7.3018 3.23134 7.15086 3.41246 7.15086 3.59359V8.57456C7.15086 8.66512 7.18105 8.78587 7.27161 8.84625L9.83757 10.7179Z" fill="#229FC6"/>
</svg>
