<svg width="24" height="24" viewBox="0 0 24 24" fill="none" xmlns="http://www.w3.org/2000/svg">
<path d="M24 12C24 8.94047 22.8314 5.99648 20.733 3.7699C18.6347 1.54333 15.7651 0.20234 12.7109 0.0210912C9.65675 -0.160157 6.6487 0.832023 4.30173 2.79479C1.95475 4.75756 0.446123 7.54267 0.0842625 10.5807C-0.277598 13.6188 0.534642 16.6803 2.35493 19.1394C4.17521 21.5986 6.86605 23.2695 9.87734 23.8107C12.8886 24.3519 15.9929 23.7225 18.5555 22.0511C21.1182 20.3797 22.9456 17.7926 23.6643 14.8186L19.5818 13.8321C19.1147 15.7652 17.9268 17.4468 16.2611 18.5332C14.5954 19.6196 12.5776 20.0288 10.6203 19.677C8.66294 19.3252 6.91389 18.2391 5.73071 16.6406C4.54752 15.0422 4.01957 13.0522 4.25478 11.0775C4.48999 9.10273 5.47059 7.29241 6.99613 6.01661C8.52166 4.74081 10.4769 4.0959 12.4621 4.21371C14.4473 4.33152 16.3125 5.20316 17.6765 6.65044C19.0404 8.09771 19.8 10.0113 19.8 12H24Z" fill="#00579D"/>
</svg>
