<svg width="17" height="18" viewBox="0 0 17 18" fill="none" xmlns="http://www.w3.org/2000/svg">
<path d="M6.15852 7.99916H4.35308V9.7583H6.15852V7.99916ZM9.76941 7.99916H7.96396V9.7583H9.76941V7.99916ZM13.3803 7.99916H11.5749V9.7583H13.3803V7.99916ZM15.1857 1.84215H14.283V0.0830078H12.4776V1.84215H5.2558V0.0830078H3.45035V1.84215H2.54763C1.54561 1.84215 0.751215 2.63377 0.751215 3.6013L0.742188 15.9153C0.742188 16.8828 1.54561 17.6744 2.54763 17.6744H15.1857C16.1787 17.6744 16.9912 16.8828 16.9912 15.9153V3.6013C16.9912 2.63377 16.1787 1.84215 15.1857 1.84215ZM15.1857 15.9153H2.54763V6.24001H15.1857V15.9153Z" fill="white"/>
</svg>
