<svg width="31" height="31" viewBox="0 0 31 31" fill="none" xmlns="http://www.w3.org/2000/svg">
<g clip-path="url(#clip0)">
<path d="M24.5151 15.234C23.8239 15.234 23.2651 15.787 23.2651 16.4685V26.3442C23.2651 27.0244 22.7051 27.5786 22.0151 27.5786H4.51514C3.82514 27.5786 3.26514 27.0244 3.26514 26.3442V9.06167C3.26514 8.38148 3.82514 7.82721 4.51514 7.82721H14.5151C15.2064 7.82721 15.7651 7.27417 15.7651 6.59274C15.7651 5.91132 15.2064 5.35828 14.5151 5.35828H4.51514C2.44764 5.35828 0.765137 7.01987 0.765137 9.06167V26.3442C0.765137 28.386 2.44764 30.0476 4.51514 30.0476H22.0151C24.0826 30.0476 25.7651 28.386 25.7651 26.3442V16.4685C25.7651 15.7858 25.2064 15.234 24.5151 15.234Z" fill="#00579D"/>
<path d="M12.4852 14.1095C12.3977 14.1959 12.3389 14.3058 12.3139 14.4243L11.4302 18.7893C11.3889 18.9918 11.4539 19.2004 11.6014 19.3473C11.7202 19.4646 11.8802 19.5276 12.0439 19.5276C12.0839 19.5276 12.1252 19.5239 12.1664 19.5152L16.5852 18.6424C16.7077 18.6178 16.8189 18.5597 16.9052 18.4733L26.7952 8.70624L22.3764 4.34241L12.4852 14.1095Z" fill="#00579D"/>
<path d="M29.8504 1.32409C28.6316 0.120486 26.6492 0.120486 25.4317 1.32409L23.7017 3.03259L28.1204 7.39642L29.8504 5.68792C30.4404 5.10649 30.7654 4.33125 30.7654 3.50662C30.7654 2.682 30.4404 1.90676 29.8504 1.32409Z" fill="#00579D"/>
</g>
<defs>
<clipPath id="clip0">
<rect width="30" height="29.6272" fill="white" transform="translate(0.765137 0.420532)"/>
</clipPath>
</defs>
</svg>
