<svg width="56" height="50" viewBox="0 0 56 50" fill="none" xmlns="http://www.w3.org/2000/svg">
<g filter="url(#filter0_d)">
<path d="M52 8.3331H2V41.6668H52V8.3331Z" fill="#F0F0F0"/>
<path d="M52 12.4994H2V16.6657H52V12.4994Z" fill="#D80027"/>
<path d="M52 20.8331H2V24.9994H52V20.8331Z" fill="#D80027"/>
<path d="M52 29.1657H2V33.3321H52V29.1657Z" fill="#D80027"/>
<path d="M52 37.4994H2V41.6657H52V37.4994Z" fill="#D80027"/>
<path d="M27 8.3331H2V26.282H27V8.3331Z" fill="#2E52B2"/>
<path d="M11.7483 15.6859L11.3456 16.9246H10.0433L11.0971 17.6898L10.6944 18.9283L11.7483 18.1632L12.8014 18.9283L12.3988 17.6898L13.4526 16.9246H12.1502L11.7483 15.6859Z" fill="#F0F0F0"/>
<path d="M12.1502 21.3945L11.7483 20.1559L11.3456 21.3945H10.0433L11.0971 22.1598L10.6944 23.3983L11.7483 22.6331L12.8014 23.3983L12.3988 22.1598L13.4526 21.3945H12.1502Z" fill="#F0F0F0"/>
<path d="M6.64619 21.3945L6.24413 20.1559L5.8415 21.3945H4.53915L5.59296 22.1598L5.19033 23.3983L6.24413 22.6331L7.29736 23.3983L6.89482 22.1598L7.94843 21.3945H6.64619Z" fill="#F0F0F0"/>
<path d="M6.24413 15.6859L5.8415 16.9246H4.53915L5.59296 17.6898L5.19033 18.9283L6.24413 18.1632L7.29736 18.9283L6.89482 17.6898L7.94843 16.9246H6.64619L6.24413 15.6859Z" fill="#F0F0F0"/>
<path d="M11.7483 11.2158L11.3456 12.4546H10.0433L11.0971 13.2198L10.6944 14.4584L11.7483 13.6932L12.8014 14.4584L12.3988 13.2198L13.4526 12.4546H12.1502L11.7483 11.2158Z" fill="#F0F0F0"/>
<path d="M6.24413 11.2158L5.8415 12.4546H4.53915L5.59296 13.2198L5.19033 14.4584L6.24413 13.6932L7.29736 14.4584L6.89482 13.2198L7.94843 12.4546H6.64619L6.24413 11.2158Z" fill="#F0F0F0"/>
<path d="M17.2522 15.6859L16.8497 16.9246H15.5474L16.6011 17.6898L16.1986 18.9283L17.2522 18.1632L18.3056 18.9283L17.9029 17.6898L18.9567 16.9246H17.6544L17.2522 15.6859Z" fill="#F0F0F0"/>
<path d="M17.6544 21.3945L17.2522 20.1559L16.8497 21.3945H15.5474L16.6011 22.1598L16.1986 23.3983L17.2522 22.6331L18.3056 23.3983L17.9029 22.1598L18.9567 21.3945H17.6544Z" fill="#F0F0F0"/>
<path d="M23.1585 21.3945L22.7564 20.1559L22.3538 21.3945H21.0515L22.1052 22.1598L21.7026 23.3983L22.7564 22.6331L23.8096 23.3983L23.407 22.1598L24.4608 21.3945H23.1585Z" fill="#F0F0F0"/>
<path d="M22.7564 15.6859L22.3538 16.9246H21.0515L22.1052 17.6898L21.7026 18.9283L22.7564 18.1632L23.8096 18.9283L23.407 17.6898L24.4608 16.9246H23.1585L22.7564 15.6859Z" fill="#F0F0F0"/>
<path d="M17.2522 11.2158L16.8497 12.4546H15.5474L16.6011 13.2198L16.1986 14.4584L17.2522 13.6932L18.3056 14.4584L17.9029 13.2198L18.9567 12.4546H17.6544L17.2522 11.2158Z" fill="#F0F0F0"/>
<path d="M22.7564 11.2158L22.3538 12.4546H21.0515L22.1052 13.2198L21.7026 14.4584L22.7564 13.6932L23.8096 14.4584L23.407 13.2198L24.4608 12.4546H23.1585L22.7564 11.2158Z" fill="#F0F0F0"/>
</g>
<defs>
<filter id="filter0_d" x="0" y="-2" width="56" height="56" filterUnits="userSpaceOnUse" color-interpolation-filters="sRGB">
<feFlood flood-opacity="0" result="BackgroundImageFix"/>
<feColorMatrix in="SourceAlpha" type="matrix" values="0 0 0 0 0 0 0 0 0 0 0 0 0 0 0 0 0 0 127 0" result="hardAlpha"/>
<feOffset dx="1" dy="1"/>
<feGaussianBlur stdDeviation="1.5"/>
<feColorMatrix type="matrix" values="0 0 0 0 0 0 0 0 0 0 0 0 0 0 0 0 0 0 0.5 0"/>
<feBlend mode="normal" in2="BackgroundImageFix" result="effect1_dropShadow"/>
<feBlend mode="normal" in="SourceGraphic" in2="effect1_dropShadow" result="shape"/>
</filter>
</defs>
</svg>
