<svg width="50" height="50" viewBox="0 0 50 50" fill="none" xmlns="http://www.w3.org/2000/svg">
<path d="M0 37.6347C0 39.7027 1.67647 41.3793 3.74463 41.3793H46.2554C48.3234 41.3793 50 39.7028 50 37.6347V34.4827H0V37.6347Z" fill="#C8414B"/>
<path d="M46.2554 8.62073H3.74463C1.67647 8.62073 0 10.2972 0 12.3654V15.5173H50V12.3654C50 10.2972 48.3235 8.62073 46.2554 8.62073Z" fill="#C8414B"/>
<path d="M50 15.5176H0V34.4834H50V15.5176Z" fill="#FFD250"/>
<path d="M21.1207 25L21.8517 21.7108C21.9191 21.4079 21.6885 21.1206 21.3781 21.1206H20.8633C20.553 21.1206 20.3226 21.408 20.3898 21.7108L21.1207 25Z" fill="#C8414B"/>
<path d="M21.9829 23.2754H20.2588V30.6025H21.9829V23.2754Z" fill="#F5F5F5"/>
<path d="M22.4134 22.4141H19.8271V23.2762H22.4134V22.4141Z" fill="#FAB446"/>
<path d="M22.4141 25H18.1035V25.8621H22.4141V25Z" fill="#C8414B"/>
<path d="M22.4138 28.4482L19.8275 27.5862V26.7241L22.4138 27.5862V28.4482Z" fill="#C8414B"/>
<path d="M8.18966 25L8.92061 21.7108C8.988 21.4079 8.75743 21.1206 8.44708 21.1206H7.93223C7.62198 21.1206 7.39151 21.408 7.4587 21.7108L8.18966 25Z" fill="#C8414B"/>
<path d="M11.2069 22.4138C10.7309 22.4138 10.3448 22.7998 10.3448 23.2759V28.8793C10.3448 29.9266 11.3224 31.8966 14.6552 31.8966C17.988 31.8966 18.9655 29.9267 18.9655 28.8793V23.2759C18.9655 22.7998 18.5795 22.4138 18.1034 22.4138H11.2069Z" fill="#F5F5F5"/>
<path d="M14.6552 26.7241H10.3448V23.2759C10.3448 22.7998 10.7309 22.4138 11.2069 22.4138H14.6552V26.7241Z" fill="#C8414B"/>
<path d="M14.6552 26.7241H18.9655V28.8793C18.9655 30.0696 18.0007 31.0345 16.8104 31.0345C15.62 31.0345 14.6552 30.0696 14.6552 28.8793V26.7241Z" fill="#C8414B"/>
<path d="M10.3448 26.7241H14.6552V28.8793C14.6552 30.0696 13.6903 31.0345 12.5 31.0345C11.3097 31.0345 10.3448 30.0696 10.3448 28.8793V26.7241Z" fill="#FAB446"/>
<path d="M13.7931 30.5937V26.7241H12.931V30.991C13.2517 30.926 13.5414 30.784 13.7931 30.5937Z" fill="#C8414B"/>
<path d="M12.0689 30.991V26.7241H11.2068V30.5937C11.4586 30.784 11.7483 30.926 12.0689 30.991Z" fill="#C8414B"/>
<path d="M13.7933 25H11.207V25.8621H13.7933V25Z" fill="#FFB441"/>
<path d="M13.7933 23.2754H11.207V24.1375H13.7933V23.2754Z" fill="#FAB446"/>
<path d="M13.3618 23.7881H11.6377V25.3498H13.3618V23.7881Z" fill="#FAB446"/>
<path d="M9.05127 23.2754H7.32715V30.6025H9.05127V23.2754Z" fill="#F5F5F5"/>
<path d="M9.48271 30.1729H6.89648V31.035H9.48271V30.1729Z" fill="#FAB446"/>
<path d="M9.48271 22.4141H6.89648V23.2762H9.48271V22.4141Z" fill="#FAB446"/>
<path d="M9.91406 31.0342H6.46582V31.8963H9.91406V31.0342Z" fill="#5064AA"/>
<path d="M22.845 30.1729H20.2588V31.035H22.845V30.1729Z" fill="#FAB446"/>
<path d="M22.8447 31.0342H19.3965V31.8963H22.8447V31.0342Z" fill="#5064AA"/>
<path d="M17.2418 21.5518H12.0693V22.4139H17.2418V21.5518Z" fill="#FAB446"/>
<path d="M15.0867 18.9658H14.2246V21.552H15.0867V18.9658Z" fill="#FFB441"/>
<path d="M13.7931 20.2586C13.08 20.2586 12.5 19.6785 12.5 18.9656C12.5 18.2525 13.0801 17.6725 13.7931 17.6725C14.5062 17.6725 15.0861 18.2526 15.0861 18.9656C15.0862 19.6785 14.5062 20.2586 13.7931 20.2586ZM13.7931 18.5345C13.5553 18.5345 13.362 18.7277 13.362 18.9656C13.362 19.2033 13.5552 19.3966 13.7931 19.3966C14.031 19.3966 14.2241 19.2034 14.2241 18.9656C14.2241 18.7278 14.031 18.5345 13.7931 18.5345Z" fill="#F5F5F5"/>
<path d="M15.5173 20.2586C14.8042 20.2586 14.2242 19.6785 14.2242 18.9656C14.2242 18.2525 14.8043 17.6725 15.5173 17.6725C16.2304 17.6725 16.8103 18.2526 16.8103 18.9656C16.8103 19.6785 16.2303 20.2586 15.5173 20.2586ZM15.5173 18.5345C15.2795 18.5345 15.0862 18.7277 15.0862 18.9656C15.0862 19.2033 15.2794 19.3966 15.5173 19.3966C15.7551 19.3966 15.9483 19.2034 15.9483 18.9656C15.9482 18.7278 15.7551 18.5345 15.5173 18.5345Z" fill="#F5F5F5"/>
<path d="M17.2414 21.1207C16.5283 21.1207 15.9483 20.5407 15.9483 19.8277C15.9483 19.1146 16.5284 18.5346 17.2414 18.5346C17.9545 18.5346 18.5345 19.1147 18.5345 19.8277C18.5345 20.5407 17.9544 21.1207 17.2414 21.1207ZM17.2414 19.3966C17.0036 19.3966 16.8103 19.5898 16.8103 19.8277C16.8103 20.0655 17.0035 20.2587 17.2414 20.2587C17.4792 20.2587 17.6725 20.0656 17.6725 19.8277C17.6725 19.5898 17.4792 19.3966 17.2414 19.3966Z" fill="#F5F5F5"/>
<path d="M12.0689 21.1207C11.3559 21.1207 10.7759 20.5407 10.7759 19.8277C10.7759 19.1146 11.356 18.5346 12.0689 18.5346C12.782 18.5346 13.362 19.1147 13.362 19.8277C13.3621 20.5407 12.782 21.1207 12.0689 21.1207ZM12.0689 19.3966C11.8312 19.3966 11.6379 19.5898 11.6379 19.8277C11.6379 20.0655 11.8311 20.2587 12.0689 20.2587C12.3068 20.2587 12.5 20.0655 12.5 19.8276C12.5 19.5898 12.3068 19.3966 12.0689 19.3966Z" fill="#F5F5F5"/>
<path d="M17.2414 28.4483V28.8793C17.2414 29.117 17.048 29.3104 16.8103 29.3104C16.5726 29.3104 16.3793 29.117 16.3793 28.8793V28.4483H17.2414ZM18.1034 27.5862H15.5172V28.8793C15.5172 29.5924 16.0973 30.1724 16.8102 30.1724C17.5233 30.1724 18.1033 29.5923 18.1033 28.8793V27.5862H18.1034Z" fill="#FAB446"/>
<path d="M16.8104 25.8621C16.3343 25.8621 15.9482 25.476 15.9482 25V24.1379C15.9482 23.6618 16.3343 23.2758 16.8104 23.2758C17.2864 23.2758 17.6725 23.6618 17.6725 24.1379V25C17.6725 25.476 17.2864 25.8621 16.8104 25.8621Z" fill="#FFA0D2"/>
<path d="M14.6553 28.0167C15.3694 28.0167 15.9483 27.4377 15.9483 26.7236C15.9483 26.0095 15.3694 25.4305 14.6553 25.4305C13.9411 25.4305 13.3622 26.0095 13.3622 26.7236C13.3622 27.4377 13.9411 28.0167 14.6553 28.0167Z" fill="#5064AA"/>
<path d="M15.0867 17.2412H14.2246V19.8274H15.0867V17.2412Z" fill="#FAB446"/>
<path d="M12.0689 21.5517L11.2068 20.6896L11.7118 20.1847C12.4924 19.4041 13.5512 18.9655 14.6552 18.9655C15.7592 18.9655 16.8179 19.4041 17.5985 20.1847L18.1035 20.6896L17.2414 21.5517H12.0689Z" fill="#C8414B"/>
<path d="M14.6553 21.1205C14.8933 21.1205 15.0863 20.9275 15.0863 20.6895C15.0863 20.4514 14.8933 20.2584 14.6553 20.2584C14.4172 20.2584 14.2242 20.4514 14.2242 20.6895C14.2242 20.9275 14.4172 21.1205 14.6553 21.1205Z" fill="#FFD250"/>
<path d="M12.9307 21.1205C13.1687 21.1205 13.3617 20.9275 13.3617 20.6895C13.3617 20.4514 13.1687 20.2584 12.9307 20.2584C12.6926 20.2584 12.4996 20.4514 12.4996 20.6895C12.4996 20.9275 12.6926 21.1205 12.9307 21.1205Z" fill="#FFD250"/>
<path d="M16.3789 21.1205C16.617 21.1205 16.81 20.9275 16.81 20.6895C16.81 20.4514 16.617 20.2584 16.3789 20.2584C16.1408 20.2584 15.9478 20.4514 15.9478 20.6895C15.9478 20.9275 16.1408 21.1205 16.3789 21.1205Z" fill="#FFD250"/>
<path d="M11.207 25H6.89648V25.8621H11.207V25Z" fill="#C8414B"/>
<path d="M6.89658 28.4482L9.48271 27.5862V26.7241L6.89658 27.5862V28.4482Z" fill="#C8414B"/>
</svg>
