<svg width="30" height="24" viewBox="0 0 30 24" fill="none" xmlns="http://www.w3.org/2000/svg">
<path d="M14.25 7.5C12.18 7.5 10.5 9.18 10.5 11.25C10.5 13.32 12.18 15 14.25 15C16.32 15 18 13.32 18 11.25C18 9.18 16.32 7.5 14.25 7.5ZM27 0H3C1.35 0 0 1.35 0 3V21C0 22.65 1.35 24 3 24H27C28.65 24 30 22.65 30 21V3C30 1.35 28.65 0 27 0ZM22.185 21.315L17.82 16.95C16.785 17.61 15.555 18 14.235 18C10.515 18 7.5 14.985 7.5 11.25C7.5 7.515 10.515 4.5 14.25 4.5C17.985 4.5 21 7.515 21 11.25C21 12.57 20.61 13.785 19.95 14.835L24.315 19.185L22.185 21.315Z" fill="white" fill-opacity="0.6"/>
</svg>
