<svg width="17" height="15" viewBox="0 0 17 15" fill="none" xmlns="http://www.w3.org/2000/svg">
<path d="M3.74527 10.9583H6.35759V9.47479H3.74527C2.96811 9.47479 2.36535 9.09527 2.36535 8.76842V2.19002C2.36535 1.86341 2.96811 1.4834 3.74527 1.4834H13.6202C14.3971 1.4834 14.9999 1.86341 14.9999 2.19002V8.76768C14.9999 9.09453 14.3971 9.4743 13.6202 9.4743H11.0081V10.9578H13.6202C15.2631 10.9578 16.55 9.99573 16.55 8.76768V2.18977C16.55 0.961466 15.2631 -6.29425e-05 13.6202 -6.29425e-05H3.74475C2.10233 -6.29425e-05 0.814905 0.96196 0.814905 2.18977V8.76768C0.815164 9.99623 2.10207 10.9583 3.74527 10.9583Z" fill="#343434"/>
<path d="M6.33546 7.85789C6.53389 7.85789 6.73205 7.7852 6.88345 7.64031L7.85387 6.71191V9.93275V11.4162V14.2583C7.85387 14.6677 8.20085 15 8.62896 15C9.05707 15 9.40405 14.6677 9.40405 14.2583V11.4165V9.933V6.66197L10.4269 7.64056C10.5783 7.78544 10.7767 7.85813 10.9749 7.85813C11.1731 7.85813 11.3715 7.78544 11.5229 7.64056C11.8257 7.35128 11.8257 6.88152 11.5229 6.592L9.20873 4.37744C9.05733 4.23256 8.85891 4.16061 8.661 4.16061C8.65893 4.16061 8.65687 4.16061 8.65506 4.16061C8.65325 4.16061 8.65118 4.16061 8.64937 4.16061C8.45095 4.16061 8.25304 4.23256 8.10164 4.37744L5.78747 6.592C5.48467 6.88152 5.48467 7.35128 5.78747 7.64056C5.93888 7.7852 6.13678 7.85789 6.33546 7.85789Z" fill="#343434"/>
</svg>
